<svg xmlns="http://www.w3.org/2000/svg" viewBox="0 0 100 100">
  <defs>
    <linearGradient id="heartGrad" x1="0%" y1="0%" x2="100%" y2="100%">
      <stop offset="0%" style="stop-color:#059669;stop-opacity:1" />
      <stop offset="100%" style="stop-color:#14b8a6;stop-opacity:1" />
    </linearGradient>
  </defs>
  <!-- Heart-shaped medical logo inspired design -->
  <path d="M50 88 C20 65 5 50 5 32 C5 18 18 8 32 8 C42 8 50 15 50 22 C50 15 58 8 68 8 C82 8 95 18 95 32 C95 50 80 65 50 88 Z" fill="url(#heartGrad)"/>
  <!-- Three stylized figures representing family/care -->
  <circle cx="35" cy="38" r="6" fill="white" opacity="0.95"/>
  <circle cx="50" cy="30" r="7" fill="white" opacity="0.95"/>
  <circle cx="65" cy="38" r="6" fill="white" opacity="0.95"/>
  <!-- Abstract body curves -->
  <path d="M28 48 Q35 60 35 72" stroke="white" stroke-width="4" stroke-linecap="round" fill="none" opacity="0.95"/>
  <path d="M43 42 Q50 55 50 68" stroke="white" stroke-width="4" stroke-linecap="round" fill="none" opacity="0.95"/>
  <path d="M58 48 Q65 60 65 72" stroke="white" stroke-width="4" stroke-linecap="round" fill="none" opacity="0.95"/>
</svg>